<svg width="200" height="132" viewBox="0 0 200 132" fill="none" xmlns="http://www.w3.org/2000/svg">
<g clip-path="url(#clip0_363_2919)">
<path d="M100 131.755C120.739 131.755 137.551 114.943 137.551 94.2041C137.551 73.4652 120.739 56.6531 100 56.6531C79.2614 56.6531 62.4492 73.4652 62.4492 94.2041C62.4492 114.943 79.2614 131.755 100 131.755Z" fill="#277EE0"/>
<path fill-rule="evenodd" clip-rule="evenodd" d="M115.755 80.4899C115.265 80.0001 114.531 80.0001 114.122 80.4899L96.7347 97.796C96.3265 98.2858 95.5918 98.2858 95.102 97.796L87.5102 90.0409C87.0204 89.5511 86.2857 89.5511 85.8776 90.0409L82.5306 93.0613C82.2857 93.3062 82.2041 93.5511 82.2041 93.8777C82.2041 94.2042 82.3673 94.5307 82.5306 94.694L90.2041 102.776C90.6939 103.265 91.4286 104 91.8367 104.408L95.102 107.755C95.5918 108.245 96.3265 108.245 96.7347 107.755L119.102 85.4695C119.592 84.9797 119.592 84.245 119.102 83.8368L115.755 80.4899Z" fill="white"/>
<path d="M2.31605 93.1429C3.6235 93.1429 4.68341 92.083 4.68341 90.7755C4.68341 89.4681 3.6235 88.4082 2.31605 88.4082C1.0086 88.4082 -0.0512695 89.4681 -0.0512695 90.7755C-0.0512695 92.083 1.0086 93.1429 2.31605 93.1429Z" fill="#E87073"/>
<path d="M197.663 93.1429C198.971 93.1429 200.031 92.083 200.031 90.7755C200.031 89.4681 198.971 88.4082 197.663 88.4082C196.356 88.4082 195.296 89.4681 195.296 90.7755C195.296 92.083 196.356 93.1429 197.663 93.1429Z" fill="#44D5A7"/>
<path d="M21.2248 46.6939C22.5322 46.6939 23.5922 45.634 23.5922 44.3266C23.5922 43.0191 22.5322 41.9592 21.2248 41.9592C19.9173 41.9592 18.8574 43.0191 18.8574 44.3266C18.8574 45.634 19.9173 46.6939 21.2248 46.6939Z" fill="#44D5A7"/>
<path d="M174.449 46.6939C175.756 46.6939 176.816 45.634 176.816 44.3266C176.816 43.0191 175.756 41.9592 174.449 41.9592C173.141 41.9592 172.082 43.0191 172.082 44.3266C172.082 45.634 173.141 46.6939 174.449 46.6939Z" fill="#DEF0FF"/>
<path d="M123.102 44.5716C124.41 44.5716 125.47 43.5117 125.47 42.2043C125.47 40.8968 124.41 39.8369 123.102 39.8369C121.795 39.8369 120.735 40.8968 120.735 42.2043C120.735 43.5117 121.795 44.5716 123.102 44.5716Z" fill="#277EE0"/>
<path d="M148.082 15.2655L150.776 16.7349C151.347 17.0614 151.592 17.7961 151.265 18.3676C151.184 18.5308 151.02 18.7757 150.776 18.8574L148.082 20.3267C147.918 20.4084 147.674 20.5716 147.592 20.8165L146.123 23.5104C145.796 24.0819 145.061 24.3267 144.49 24.0002C144.327 23.9186 144.082 23.7553 144 23.5104L142.531 20.8165C142.449 20.6533 142.286 20.4084 142.041 20.3267L139.347 18.8574C138.776 18.5308 138.531 17.7961 138.857 17.2247C138.939 17.0614 139.102 16.8165 139.347 16.7349L142.041 15.2655C142.204 15.1839 142.449 15.0206 142.531 14.7757L144 12.0819C144.327 11.5104 145.061 11.2655 145.633 11.5921C145.796 11.6737 146.041 11.837 146.123 12.0819L147.592 14.7757C147.755 15.0206 147.918 15.1839 148.082 15.2655Z" fill="#DEF0FF"/>
<path d="M155.102 84.6532L156.735 85.5512C157.061 85.7145 157.225 86.2043 157.061 86.5308C156.98 86.6124 156.898 86.7757 156.735 86.8573L155.102 87.7553C155.02 87.8369 154.857 87.9185 154.776 88.0818L153.878 89.7145C153.714 90.041 153.225 90.2043 152.898 90.041C152.816 89.9594 152.653 89.8777 152.571 89.7145L151.673 88.0818C151.592 88.0002 151.51 87.8369 151.347 87.7553L149.714 86.8573C149.388 86.694 149.225 86.2043 149.388 85.8777C149.469 85.7961 149.551 85.6328 149.714 85.5512L151.347 84.6532C151.429 84.5716 151.592 84.49 151.673 84.3267L152.571 82.6941C152.735 82.3675 153.224 82.2042 153.551 82.3675C153.633 82.4491 153.796 82.5308 153.878 82.6941L154.776 84.3267C154.857 84.4083 154.939 84.5716 155.102 84.6532Z" fill="#DEF0FF"/>
<path d="M67.7551 5.71436L56 11.5103L54.6123 16.5715L66.6939 9.55109L67.7551 5.71436Z" fill="#277EE0"/>
<path d="M156.572 67.1839L169.388 64.4083L171.919 59.8369L158.449 63.7553L156.572 67.1839Z" fill="#E87073"/>
<path d="M98.5658 32.5196L97.7421 34.284C95.2742 33.1471 92.1682 33.3363 88.0782 34.7354C86.6572 35.1824 85.3512 35.8606 84.1486 36.6891C84.333 36.8281 84.5174 36.967 84.6905 37.0251C86.6153 38.4033 87.3022 40.9447 86.4545 43.1247C86.1993 43.6552 85.8519 44.1162 85.4123 44.5077C83.99 45.5319 82.1434 45.2968 80.9107 44.1511C79.8511 43.0635 79.3927 41.5617 79.6733 40.0384C79.7908 39.1151 80.0814 38.2499 80.6372 37.5123C80.06 37.511 79.4827 37.5097 78.9169 37.5892C77.7851 37.7483 76.7797 38.2193 75.9814 38.991L76.1658 39.13C78.6451 40.3478 79.2966 43.2239 79.0261 45.4052C78.9794 45.6591 78.944 45.9938 78.7242 46.1896C78.3768 46.6506 77.8336 46.8918 77.2564 46.8904C76.0906 46.807 75.0297 46.2966 74.258 45.4983C73.5331 44.4461 73.0974 43.1059 73.0773 41.7898C73.0319 41.4664 73.0672 41.1317 73.1026 40.797C72.0277 41.3602 71.0791 42.2355 70.6609 43.3659C69.721 45.4764 70.0845 48.0633 70.3913 50.2459L68.4512 50.5186C68.1217 48.1742 67.7013 45.1832 68.8156 42.5536C69.5003 40.9735 70.7964 39.6373 72.4371 38.9945C72.83 38.8569 73.3036 38.7079 73.7078 38.6511C74.7967 37.0142 76.5311 35.8637 78.5634 35.6605C79.6951 35.5014 80.9304 35.4927 82.0381 35.7492C83.588 34.4597 85.4259 33.4595 87.4014 32.8521C92.1267 31.2812 95.6596 31.1969 98.5658 32.5196ZM81.5867 41.3358C81.6663 41.9016 81.8961 42.3639 82.2876 42.8035C82.7713 43.3126 83.6138 43.4415 84.2151 43.0273C84.4348 42.8315 84.5738 42.6471 84.7014 42.3819C85.1663 40.9976 84.6966 39.4149 83.498 38.5117C83.2214 38.3032 82.9448 38.0948 82.5987 37.9786C82.0316 38.6353 81.6488 39.431 81.5199 40.2735C81.5767 40.6777 81.5413 41.0124 81.5867 41.3358ZM77.1568 45.0084C77.2756 43.5079 76.9221 41.5792 75.4116 40.8022C75.3194 40.7328 75.2385 40.7441 75.1463 40.6746C75.0415 41.1016 75.0061 41.4363 75.0515 41.7596C75.0148 42.6716 75.2206 43.5494 75.7384 44.301C76.1186 44.6597 76.649 44.9149 77.1568 45.0084Z" fill="#44D5A7"/>
<path d="M33.4091 73.3849L35.198 68.5171C35.6275 67.4675 36.7833 66.8929 37.8329 67.3225C38.1789 67.4387 38.5477 67.7166 38.7549 68.0172L41.8162 72.2033C42.0233 72.504 42.3921 72.7819 42.7382 72.8981L47.606 74.687C48.6556 75.1166 49.2302 76.2723 48.8006 77.3219C48.6844 77.668 48.4065 78.0368 48.1059 78.2439L43.9198 81.3053C43.6191 81.5124 43.3412 81.8812 43.225 82.2273L41.4361 87.0951C41.0065 88.1446 39.8508 88.7192 38.8012 88.2897C38.4551 88.1735 38.0863 87.8956 37.8792 87.5949L34.8178 83.4088C34.6107 83.1082 34.2419 82.8303 33.8958 82.7141L29.0281 80.9251C27.9785 80.4956 27.4039 79.3398 27.8334 78.2902C27.9496 77.9442 28.2275 77.5754 28.5282 77.3683L32.7143 74.3069C33.0035 74.0189 33.2928 73.731 33.4091 73.3849Z" fill="#DEF0FF"/>
<path d="M109.376 7.90541C110.192 2.51766 103.743 0.231934 103.743 0.231934L102.437 3.6605C106.274 4.64009 106.682 9.86459 106.682 9.86459L109.376 7.90541Z" fill="#E87073"/>
</g>
<defs>
<clipPath id="clip0_363_2919">
<rect width="200" height="131.429" fill="white"/>
</clipPath>
</defs>
</svg>
